<svg xmlns="http://www.w3.org/2000/svg" viewBox="0 0 178 172"><style>.st0{fill:#91b63e}.st2{fill:#253520}.st4{fill:#8ac640}</style><g id="Layer_1"><path class="st0" d="M40.1 704.2c.7-2.6-.9-4.7-.9-4.7s-2.4 1.1-3.1 3.6c-.7 2.7.9 4.7.9 4.7.1 0 2.3-.9 3.1-3.6zm-3 11.3c2.2-1.6 2.3-4.2 2.3-4.2s-2.6-.7-4.7.9c-2.3 1.6-2.3 4.2-2.3 4.2.1 0 2.4.7 4.7-.9zm-10.4 9.6c.1.1 2.5.8 4.7-.9 2.2-1.6 2.3-4.2 2.3-4.2s-2.6-.7-4.7.9c-2.3 1.6-2.3 4.2-2.3 4.2zm13.1 12.6s-2.4-1.2-4.8-.2c-2.6 1.1-3.1 3.6-3.1 3.6.1.1 2.3 1.3 4.8.2 2.4-1 3.1-3.6 3.1-3.6zm4-13.6c.1.1 2.3 1.1 4.8-.1 2.4-1.2 2.9-3.8 2.9-3.8s-2.4-1.1-4.8.1c-2.4 1.2-2.9 3.8-2.9 3.8zm11.1-14.8c1.4-2.3.4-4.8.4-4.8s-2.6.4-4 2.7c-1.4 2.4-.4 4.8-.4 4.8.2 0 2.6-.3 4-2.7zm1 22.1c-1.1 2.6.2 4.8.2 4.8.1 0 2.5-.6 3.6-3.2 1-2.5-.2-4.8-.2-4.8s-2.5.8-3.6 3.2zm-6.5 16.4c-2.7-.6-4.7 1-4.7 1 0 .1 1 2.4 3.7 3 2.6.6 4.7-1 4.7-1s-1.1-2.4-3.7-3zm-42.9-.6c-2.8.3-4.1 2.5-4.1 2.5.1.1 1.8 1.9 4.5 1.6 2.7-.3 4.1-2.5 4.1-2.5s-1.9-1.9-4.5-1.6zm62.1-4.7c-2.8.1-4.3 2.2-4.3 2.2 0 .1 1.6 2 4.4 1.9 2.7-.1 4.3-2.2 4.3-2.2s-1.8-2-4.4-1.9zm-81.7-.7c-2.8.1-4.3 2.2-4.3 2.2 0 .1 1.6 2 4.4 1.9 2.7-.1 4.3-2.2 4.3-2.2s-1.7-2-4.4-1.9zM64 726.4c-1.1 2.6.2 4.8.2 4.8.1 0 2.5-.6 3.6-3.2 1-2.5-.2-4.8-.2-4.8s-2.6.8-3.6 3.2zm-10.1-10.3c.1.1 2.3 1.2 4.8 0 2.4-1.2 3-3.7 3-3.7s-2.4-1.1-4.8 0c-2.5 1.2-3 3.7-3 3.7zm-15.2 13.1c-2.4 1.5-2.5 4.1-2.5 4.1.1.1 2.4.9 4.8-.6 2.2-1.5 2.5-4.1 2.5-4.1s-2.6-.8-4.8.6zm-17.8-14.3s1.6-2.1 1-4.7c-.7-2.7-3-3.7-3-3.7-.1.1-1.6 2-1 4.7.6 2.6 3 3.7 3 3.7zm3.7-10.6s1-2.5-.4-4.8c-1.4-2.4-4-2.7-4-2.7-.1.1-1 2.4.4 4.8 1.4 2.3 4 2.7 4 2.7zM-3 735.5c2.6.7 4.7-.8 4.7-.8s-1-2.5-3.6-3.2c-2.7-.8-4.7.8-4.7.8 0 .2.9 2.5 3.6 3.2zm23.4 5.5c.1-.1 1.2-2.3.1-4.8-1.1-2.4-3.7-3.1-3.7-3.1s-1.2 2.4-.1 4.8c1.2 2.6 3.7 3.1 3.7 3.1zm-9.7-10.4c.1-.1 1.8-1.9 1.3-4.6-.4-2.6-2.8-3.9-2.8-3.9s-1.8 2-1.3 4.6c.5 2.7 2.8 3.9 2.8 3.9zm-3.5-16.4c.5-2.6-1.3-4.6-1.3-4.6s-2.3 1.3-2.8 3.9c-.5 2.8 1.3 4.6 1.3 4.6.1 0 2.3-1.2 2.8-3.9zM-5 727.8c.1-.1.5-2.5-1.4-4.6-1.8-2-4.4-1.8-4.4-1.8s-.4 2.6 1.4 4.6c1.9 2 4.4 1.8 4.4 1.8z"/><path class="st0" d="M19.7 746.7c0-.1 0-.1 0 0-1.1-2.4-2.7-4.8-5.2-7.7-1.7-2-3.3-3.6-4.8-5.2-3.5-3.5-6.2-6.3-8.5-11.8-2.5-5.9-1.6-10.9-1.5-10.9.2-1-.4-2-1.4-2.2-1-.2-2 .4-2.2 1.4-.1.2-1.3 6.1 1.8 13.1 2.6 6.1 5.7 9.3 9.3 12.9 1.2 1.3 2.5 2.6 3.9 4.1-1.8-.5-3.7-.7-5.6-.9-.5 0-1-.1-1.5-.1-1.9-.2-3.8-.3-5.7-.7-6.6-1.2-9.4-8.6-9.4-8.7-.3-1-1.4-1.5-2.4-1.1-1 .3-1.5 1.4-1.1 2.4.1.4 3.5 9.5 12.2 11.1.5.1.9.2 1.4.2-2.6 2.6-3.9 5.8-4 6-.4 1 .1 2 1 2.4.2.1.5.1.7.1.7 0 1.4-.4 1.7-1.2 0-.1 2.5-6.2 6.8-6.7 4.7.4 8.5 1.1 11.2 5 1.3 2.8 1.7 5.3 1.9 8 .4 4.7-2 11.4-2 11.4-.4 1 .1 2 1.1 2.4.2.1.4.1.6.1.8 0 1.5-.5 1.7-1.2.1-.3 2.7-7.5 2.2-13.1-.1-2.8-.5-5.7-2.2-9.1zM71.9 729c-1-.3-2 .2-2.4 1.1 0 .1-2.8 7.5-9.4 8.7-1.7.3-3.5.5-5.3.7-3.1.3-6.2.7-9 1.7.2-.4.4-.7.5-1.1 1.6-3.4 3.3-7 5.7-10.3 3.5-4.9 7.7-7.8 12.5-8.7 1-.2 1.7-1.1 1.5-2.1-.2-1-1.1-1.7-2.1-1.5-5.8 1-10.8 4.5-14.8 10.2-2.5 3.6-4.4 7.4-6 10.8-.5 1-.9 1.9-1.4 2.8-.5 1.1-1.2 2-1.9 3.1-1.9 2.8-4 5.9-4.4 11.8-.5 8.1 3 13.2 3.2 13.4.4.5.9.8 1.5.8.4 0 .7-.1 1.1-.3.8-.6 1-1.7.5-2.6 0 0-2.9-4.3-2.5-11.1.2-3.2 1-5.4 2-7.2 2.6-3.8 6.6-4.9 11.2-5.5.2.1.4.2.6.2 4.4.4 6.9 6.6 7 6.8.3.7 1 1.2 1.7 1.2.2 0 .5 0 .7-.1 1-.4 1.4-1.4 1-2.4-.1-.2-1.5-3.8-4.4-6.4l1.8-.3c8.7-1.6 12.1-10.7 12.2-11.1.4-1.2-.1-2.3-1.1-2.6z"/><path class="st0" d="M37 726.8c8.1-5 11.3-12.2 10.8-23.8 0-1-.9-1.8-1.9-1.8-1 0-1.8.9-1.8 1.9.5 10.4-2.1 16.1-9 20.5-5.3 3.3-7.8 7.3-9.1 10.5-1.5-2.6-2.9-4.8-4.2-6.8 1.4-1.6 4.2-5 6.8-9.2 3.5-5.6 4.2-12.2 2.6-22.6-.2-1-1.1-1.7-2.1-1.5-1 .2-1.7 1.1-1.5 2.1 1.5 9.5.9 15.3-2.1 20.1-2.1 3.3-4.4 6.2-5.8 8-1.6-2.3-3-4.4-4.2-6.6-2.1-3.8-1.6-12.2-1.2-15.1.1-1-.6-1.9-1.6-2.1-1-.1-1.9.6-2.1 1.6-.1.5-1.5 11.7 1.6 17.4 1.4 2.5 2.8 4.7 4.5 7.2 1.9 2.7 4 5.9 6.3 10 .7 1.2 1.3 2.3 1.8 3.4.1.2.1.4.2.5 3.2 7 3 12.6 1.4 27.7-.1 1 .6 1.9 1.6 2h.2c.9 0 1.7-.7 1.8-1.7 1.6-15.4 1.7-21.8-1.7-29.5.3-1.5 1.4-7.6 8.7-12.2z"/><path d="M-38.3 789.2v5.8h-7.5v4.4h6.8v5.8h-6.8v10.4H-52v-26.4h13.7zm4.2 26.4v-17.7h5.8v2.9c.5-1.1 1.3-1.9 2.3-2.5.8-.5 1.8-.7 3-.7h1.2v6c-.8-.4-1.6-.6-2.5-.6-1.1 0-2 .3-2.6 1-.9.9-1.3 2.2-1.3 4v7.6h-5.9zm32.3-8.4v.7h-12c0 1.2.3 2.2 1 3 .5.6 1.3.9 2.4.9.7 0 1.3-.2 1.9-.5.5-.3.8-.7 1-1.2H-2c-.4 1.4-1 2.6-1.9 3.6-1.5 1.6-3.7 2.5-6.6 2.5-2.8 0-5-.9-6.7-2.7-1.6-1.7-2.4-4-2.4-6.7 0-2.9.8-5.1 2.4-6.9 1.6-1.7 3.8-2.6 6.6-2.6 2.6 0 4.6.8 6.2 2.4 1.8 1.9 2.6 4.4 2.6 7.5zm-11.8-2.9H-7c-.2-.8-.5-1.4-.9-1.9-.6-.6-1.4-1-2.4-1s-1.8.3-2.3 1c-.6.5-.9 1.2-1 1.9zm31.9 2.9v.7h-12c0 1.2.3 2.2 1 3 .5.6 1.3.9 2.4.9.7 0 1.3-.2 1.9-.5.5-.3.8-.7 1-1.2H18c-.4 1.4-1 2.6-1.9 3.6-1.5 1.6-3.7 2.5-6.6 2.5-2.8 0-5-.9-6.7-2.7-1.6-1.7-2.4-4-2.4-6.7 0-2.9.8-5.1 2.4-6.9 1.6-1.7 3.8-2.6 6.6-2.6 2.6 0 4.6.8 6.2 2.4 1.8 1.9 2.7 4.4 2.7 7.5zm-11.8-2.9H13c-.2-.8-.5-1.4-.9-1.9-.6-.6-1.4-1-2.4-1s-1.8.3-2.3 1c-.6.5-.9 1.2-.9 1.9zM45 789.2v5.8h-7.5v4.4h6.8v5.8h-6.8v10.4h-6.2v-26.4H45zm21 17.5c0 2.6-.8 4.7-2.5 6.5-1.8 2-4.2 2.9-7.2 2.9s-5.4-1-7.2-2.9c-1.7-1.8-2.5-4-2.5-6.5s.8-4.7 2.5-6.5c1.8-2 4.2-2.9 7.2-2.9 2.9 0 5.3 1 7.2 2.9 1.7 1.8 2.5 3.9 2.5 6.5zm-9.7-4c-1 0-1.8.4-2.6 1.1s-1.1 1.7-1.1 2.9c0 1.1.4 2 1.1 2.8.7.8 1.6 1.2 2.6 1.2s1.8-.4 2.6-1.2c.7-.8 1.1-1.7 1.1-2.8 0-1.1-.4-2.1-1.1-2.9-.7-.7-1.6-1.1-2.6-1.1zm30.6 4c0 2.6-.8 4.7-2.5 6.5-1.8 2-4.2 2.9-7.2 2.9s-5.4-1-7.2-2.9c-1.7-1.8-2.5-4-2.5-6.5s.8-4.7 2.5-6.5c1.8-2 4.2-2.9 7.2-2.9 2.9 0 5.3 1 7.2 2.9 1.7 1.8 2.5 3.9 2.5 6.5zm-9.6-4c-1 0-1.8.4-2.6 1.1s-1.1 1.7-1.1 2.9c0 1.1.4 2 1.1 2.8.7.8 1.6 1.2 2.6 1.2s1.8-.4 2.6-1.2c.7-.8 1.1-1.7 1.1-2.8 0-1.1-.4-2.1-1.1-2.9-.8-.7-1.7-1.1-2.6-1.1zm30.8-16v28.9h-5.8v-1.9c-1.2 1.7-2.8 2.5-4.9 2.5-2.2 0-4.1-.8-5.7-2.5-1.7-1.8-2.6-4.2-2.6-7 0-2.9.9-5.2 2.6-7 1.5-1.6 3.4-2.4 5.7-2.4 1.9 0 3.5.8 4.8 2.3v-12.9h5.9zm-9.3 24.1c.9 0 1.7-.4 2.5-1.1.8-.8 1.2-1.8 1.2-3 0-1.1-.4-2-1.1-2.9-.7-.8-1.5-1.2-2.6-1.2-1 0-1.9.4-2.6 1.1-.7.8-1.1 1.8-1.1 3 0 1 .4 2 1.1 2.8.8.9 1.6 1.3 2.6 1.3z" fill="#302b3f"/><circle class="st2" cx="68.8" cy="842.1" r="1.8"/><circle class="st2" cx="-13" cy="842.1" r="1.8"/><path class="st2" d="M.5 849.7c-.8 0-1.3-.1-1.7-.4-.4-.3-.6-.7-.7-1.2-.1-.5-.1-1.1 0-1.7.1-.6.2-1.3.4-1.9.2-.6.4-1.3.6-1.8.2-.6.4-1 .6-1.4.4-.9.7-1.8 1.1-2.7.4-.9.8-1.8 1.2-2.6.4-.8.8-1.5 1.1-2.1.3-.6.6-1 .8-1.2.3-.4.7-.6 1.2-.6s.9.1 1.3.4c.3.2.4.5.4 1-.1.5-.2 1.1-.5 1.8s-.7 1.5-1.2 2.3c-.5.8-1 1.7-1.5 2.5.3-.2.5-.3.8-.4.6-.1 1.1 0 1.5.2.4.2.7.6.9 1.1.1.4.1 1 0 1.5-.1.6-.3 1.2-.5 1.8-.2.6-.5 1.2-.8 1.7s-.6 1-1 1.3c.4-.3.9-.7 1.5-1.1.5-.4 1-.9 1.5-1.4.5-.5.9-1 1.3-1.5s.6-1 .8-1.5c0 .6-.1 1.2-.5 1.9s-.9 1.4-1.6 2.1-1.4 1.4-2.3 2c-.9.6-1.8 1.2-2.7 1.6-.3.1-.6.2-1 .3-.4-.1-.7 0-1 0zm-1.4-2.9c-.2.6-.3 1.1-.2 1.5.1.4.3.6.6.7.3.1.7.1 1.2-.1s1.1-.5 1.7-1.1c.7-.6 1.3-1.4 1.8-2.2.5-.9.8-1.7 1-2.5.2-.8.3-1.5.2-2-.1-.6-.4-.8-.8-.8-.3 0-.6.1-.9.4-.3.3-.7.7-1 1.1s-.7.9-1.1 1.4c-.4.5-.7 1-1 1.4-.5.8-.9 1.3-1 1.6-.2.3-.3.5-.5.6zm6.8-14.1h-.2c-.1 0-.3.2-.5.6-.3.5-.6 1.2-1 1.9s-.7 1.5-1.1 2.3c-.4.8-.7 1.6-1.1 2.4-.4.8-.7 1.6-1 2.4 1.2-1.7 2.2-3.3 3.1-4.9.9-1.6 1.5-2.8 1.9-3.7.1-.2.1-.4.1-.6 0-.2 0-.3-.2-.4z"/><path class="st2" d="M8.3 846.6c-.2.3-.3.6-.3.9 0 .4.1.7.3.9.2.3.5.4.9.5.4.1 1 0 1.7-.2s1.5-.6 2.2-1.2c.7-.6 1.4-1.2 2.1-2 .7-.7 1.2-1.4 1.8-2.2.5-.7.9-1.4 1.2-1.9-.3.9-.7 1.7-1.3 2.6-.5.9-1.1 1.7-1.7 2.4-.6.7-1.3 1.4-2 1.9s-1.5.9-2.2 1.1c-.9.2-1.7.2-2.4 0s-1.2-.6-1.5-1.1c-.3-.5-.5-1.1-.5-1.9 0-.7.3-1.5.7-2.3.3-.6.6-1.1 1-1.6s.8-.9 1.2-1.3c.4-.4.8-.7 1.1-.9.4-.3.7-.5.9-.6.8-.4 1.5-.5 2.2-.4.6.1 1.1.4 1.5 1 .1.2.1.5.1 1-.1.5-.4 1-.8 1.6s-1.2 1.2-2.2 1.8c-1 .8-2.3 1.4-4 1.9zm4.7-5.5c-.4.2-.8.5-1.3.9s-.9.8-1.3 1.3-.8.9-1.1 1.4c-.3.5-.6.9-.7 1.3.7-.2 1.6-.6 2.6-1.2 1-.5 1.9-1.3 2.6-2.3.2-.3.4-.6.5-.9.1-.3.2-.5.2-.7 0-.2-.2-.2-.4-.2s-.6.1-1.1.4zm15.4 2.3c-.4.1-.9.1-1.4.1h-1.5c.3.1.5.4.7.8.2.4.3 1 .3 1.6v1.9c-.1.6-.2 1.2-.3 1.7-.1.5-.3 1.2-.6 2-.3.9-.6 1.7-1 2.4s-.9 1.3-1.5 1.8c-.6.4-1.3.5-2.1.2-.4-.2-.6-.7-.6-1.5s.2-1.8.5-3 .7-2.5 1.2-3.9 1-2.8 1.4-4.2l-.9-.1c-.7-.1-1.1-.2-1.2-.4-.1-.2.1-.3.6-.2.4.1.7.1 1 .1h.8c.4-1 .8-2 1.3-3.1s.9-2.1 1.4-3.1l1.3-2.6c.4-.7.7-1.2.9-1.5.4-.4.8-.6 1.4-.5.6.1 1 .2 1.4.4.4.3.6.8.5 1.6s-.4 1.7-.9 2.7c-.5 1-1.2 2.1-2 3.1-.8 1.1-1.6 2.1-2.5 2.9.9-.1 1.5-.2 1.8-.4.3-.2.4-.5.4-.9-.1-.2 0-.3.2-.1.2.1.4.4.6.7.2.3.2.6.1.9-.4.3-.7.5-1.3.6zm-3 5.1c.2-1.4.3-2.5.2-3.3s-.2-1.3-.5-1.6c0 .1 0 .1-.1.1l-.9 2.3c-.1.4-.3.8-.5 1.4l-.6 1.8c-.2.6-.4 1.3-.6 2-.2.7-.3 1.3-.4 1.8-.1.6-.2 1-.2 1.4 0 .4 0 .5.1.6.3.1.6-.1.9-.3.3-.3.7-.7 1-1.3.3-.6.7-1.3.9-2.1.3-.8.6-1.7.7-2.8zm4.8-15.3c-.4.6-.8 1.3-1.2 2l-1.2 2.4c-.4.8-.8 1.7-1.2 2.6-.4.9-.7 1.7-1.1 2.5h.2l.2-.3c1.6-2 2.8-3.7 3.6-5.2.7-1.5 1.2-2.7 1.4-3.7.1-.4.1-.7-.1-.8-.2-.1-.4.1-.6.5zm-.7 16.5c-.5-.2-.8-.5-.9-1-.1-.5-.1-1.1.1-1.7.1-.5.3-1 .5-1.6.2-.6.5-1.2.7-1.8.2-.6.5-1.2.8-1.8.3-.6.5-1 .8-1.5.3-.4.7-.7 1.1-.8.5-.1.9-.1 1.2 0 .3.1.6.2.7.4.1.2 0 .3-.4.3-.2 0-.5.2-.8.6-.3.4-.6.8-1 1.3-.3.5-.7 1-.9 1.5-.3.5-.5 1-.7 1.4.3-.4.7-1 1.2-1.6.5-.6 1.1-1.2 1.6-1.7.6-.5 1.1-1 1.6-1.4.5-.4.9-.6 1.1-.7.4-.1.7-.1 1.1 0 .3.1.6.2.8.3s.4.3.4.5c.1.2 0 .4-.2.6-.1.1-.2.2-.2.3s-.1.1-.1.2-.1.2-.2.4c-.1.1-.2.4-.4.7-.3.6-.6 1.1-.9 1.6-.2.5-.4.9-.6 1.3-.1.4-.1.7.1.8s.5.1.9-.2c.4-.3.9-.7 1.5-1.5.6-.7 1.2-1.7 1.8-2.9-.1.3-.2.7-.4 1.1-.2.4-.4.9-.7 1.3s-.6.9-.9 1.3c-.4.4-.7.8-1.1 1-.2.1-.5.2-.8.3-.3 0-.6 0-.9-.1s-.5-.2-.7-.4c-.2-.2-.3-.5-.3-.7 0-.4.1-.7.2-1.2.1-.4.2-.9.4-1.3s.4-.9.6-1.2c.2-.4.4-.7.5-.9.1-.3.2-.4.1-.5 0-.1-.1-.1-.2 0-.1 0-.2.1-.4.2-.1.1-.3.2-.4.3-.5.4-1 .8-1.5 1.3l-1.6 1.6c-.5.6-1 1.1-1.4 1.7-.4.5-.7.9-.8 1.2-.2.4-.4.8-.5 1.5 0 .6-.1 1.1.1 1.5z"/><path class="st2" d="M39.4 846.6c-.2.3-.3.6-.3.9 0 .4.1.7.3.9.2.3.5.4.9.5.4.1 1 0 1.7-.2s1.5-.6 2.2-1.2c.7-.6 1.4-1.2 2.1-2 .7-.7 1.2-1.4 1.8-2.2.5-.7.9-1.4 1.2-1.9-.3.9-.7 1.7-1.3 2.6-.5.9-1.1 1.7-1.7 2.4-.6.7-1.3 1.4-2 1.9s-1.5.9-2.2 1.1c-.9.2-1.7.2-2.4 0s-1.2-.6-1.5-1.1c-.3-.5-.5-1.1-.5-1.9 0-.7.3-1.5.7-2.3.3-.6.6-1.1 1-1.6s.8-.9 1.2-1.3c.4-.4.8-.7 1.1-.9.4-.3.7-.5.9-.6.8-.4 1.5-.5 2.2-.4.6.1 1.1.4 1.5 1 .1.2.1.5.1 1-.1.5-.4 1-.8 1.6-.5.6-1.2 1.2-2.2 1.8-1.1.8-2.4 1.4-4 1.9zm4.6-5.5c-.4.2-.8.5-1.3.9s-.9.8-1.3 1.3-.8.9-1.1 1.4c-.3.5-.6.9-.7 1.3.7-.2 1.6-.6 2.6-1.2 1-.5 1.9-1.3 2.6-2.3.2-.3.4-.6.5-.9.1-.3.2-.5.2-.7 0-.2-.2-.2-.4-.2s-.6.1-1.1.4z"/><path class="st2" d="M48 846.6c-.2.3-.3.6-.3.9 0 .4.1.7.3.9.2.3.5.4.9.5.4.1 1 0 1.7-.2s1.5-.6 2.2-1.2c.7-.6 1.4-1.2 2.1-2 .7-.7 1.2-1.4 1.8-2.2.5-.7.9-1.4 1.2-1.9-.3.9-.7 1.7-1.3 2.6-.5.9-1.1 1.7-1.7 2.4-.6.7-1.3 1.4-2 1.9s-1.5.9-2.2 1.1c-.9.2-1.7.2-2.4 0s-1.2-.6-1.5-1.1c-.3-.5-.5-1.1-.5-1.9 0-.7.3-1.5.7-2.3.3-.6.6-1.1 1-1.6s.8-.9 1.2-1.3c.4-.4.8-.7 1.1-.9.4-.3.7-.5.9-.6.8-.4 1.5-.5 2.2-.4.6.1 1.1.4 1.5 1 .1.2.1.5.1 1-.1.5-.4 1-.8 1.6-.5.6-1.2 1.2-2.2 1.8-1 .8-2.4 1.4-4 1.9zm4.6-5.5c-.4.2-.8.5-1.3.9s-.9.8-1.3 1.3-.8.9-1.1 1.4c-.3.5-.6.9-.7 1.3.7-.2 1.6-.6 2.6-1.2 1-.5 1.9-1.3 2.6-2.3.2-.3.4-.6.5-.9.1-.3.2-.5.2-.7 0-.2-.2-.2-.4-.2s-.5.1-1.1.4z"/><path class="st0" d="M99.6 17.7c.7-2.6-.9-4.7-.9-4.7s-2.4 1.1-3.1 3.6c-.7 2.7.9 4.7.9 4.7.1 0 2.3-.9 3.1-3.6zm-3 11.3c2.2-1.6 2.3-4.2 2.3-4.2s-2.6-.7-4.7.9c-2.3 1.6-2.3 4.2-2.3 4.2.1 0 2.4.7 4.7-.9zm-10.4 9.6c.1.1 2.5.8 4.7-.9 2.2-1.6 2.3-4.2 2.3-4.2s-2.6-.7-4.7.9c-2.3 1.6-2.3 4.2-2.3 4.2zm13.1 12.6s-2.4-1.2-4.8-.2c-2.6 1.1-3.1 3.6-3.1 3.6.1.1 2.3 1.3 4.8.2 2.4-1 3.1-3.6 3.1-3.6zm4-13.6c.1.1 2.3 1.1 4.8-.1 2.4-1.2 2.9-3.8 2.9-3.8s-2.4-1.1-4.8.1c-2.4 1.2-2.9 3.8-2.9 3.8zm11.1-14.8c1.4-2.3.4-4.8.4-4.8s-2.6.4-4 2.7c-1.4 2.4-.4 4.8-.4 4.8.2 0 2.6-.3 4-2.7zm1 22.1c-1.1 2.6.2 4.8.2 4.8.1 0 2.5-.6 3.6-3.2 1-2.5-.2-4.8-.2-4.8s-2.5.8-3.6 3.2zm-6.5 16.4c-2.7-.6-4.7 1-4.7 1 0 .1 1 2.4 3.7 3 2.6.6 4.7-1 4.7-1s-1.1-2.4-3.7-3zM66 60.7c-2.8.3-4.1 2.5-4.1 2.5.1.1 1.8 1.9 4.5 1.6 2.7-.3 4.1-2.5 4.1-2.5s-1.9-1.9-4.5-1.6zm62.1-4.7c-2.8.1-4.3 2.2-4.3 2.2 0 .1 1.6 2 4.4 1.9 2.7-.1 4.3-2.2 4.3-2.2s-1.8-2-4.4-1.9zm-81.7-.7c-2.8.1-4.3 2.2-4.3 2.2 0 .1 1.6 2 4.4 1.9 2.7-.1 4.3-2.2 4.3-2.2s-1.7-2-4.4-1.9zm77.1-15.4c-1.1 2.6.2 4.8.2 4.8.1 0 2.5-.6 3.6-3.2 1-2.5-.2-4.8-.2-4.8s-2.6.8-3.6 3.2zm-10.1-10.3c.1.1 2.3 1.2 4.8 0 2.4-1.2 3-3.7 3-3.7s-2.4-1.1-4.8 0c-2.5 1.2-3 3.7-3 3.7zM98.2 42.7c-2.4 1.5-2.5 4.1-2.5 4.1.1.1 2.4.9 4.8-.6 2.2-1.5 2.5-4.1 2.5-4.1s-2.6-.8-4.8.6zM80.4 28.4s1.6-2.1 1-4.7c-.7-2.7-3-3.7-3-3.7-.1.1-1.6 2-1 4.7.6 2.6 3 3.7 3 3.7zm3.7-10.6s1-2.5-.4-4.8c-1.4-2.4-4-2.7-4-2.7-.1.1-1 2.4.4 4.8 1.4 2.3 4 2.7 4 2.7zM56.5 49c2.6.7 4.7-.8 4.7-.8s-1-2.5-3.6-3.2c-2.7-.8-4.7.8-4.7.8 0 .2.9 2.5 3.6 3.2zm23.4 5.5c.1-.1 1.2-2.3.1-4.8-1.1-2.4-3.7-3.1-3.7-3.1s-1.2 2.4-.1 4.8c1.2 2.6 3.7 3.1 3.7 3.1zm-9.7-10.4c.1-.1 1.8-1.9 1.3-4.6-.4-2.6-2.8-3.9-2.8-3.9s-1.8 2-1.3 4.6c.5 2.7 2.8 3.9 2.8 3.9zm-3.5-16.4c.5-2.6-1.3-4.6-1.3-4.6s-2.3 1.3-2.8 3.9c-.5 2.8 1.3 4.6 1.3 4.6.1 0 2.3-1.2 2.8-3.9zM54.5 41.3c.1-.1.5-2.5-1.4-4.6-1.8-2-4.4-1.8-4.4-1.8s-.4 2.6 1.4 4.6c1.9 2 4.4 1.8 4.4 1.8z"/><path class="st0" d="M79.2 60.2c0-.1 0-.1 0 0-1.1-2.4-2.7-4.8-5.2-7.7-1.7-2-3.3-3.6-4.8-5.2-3.5-3.5-6.2-6.3-8.5-11.8-2.5-5.9-1.6-10.9-1.5-10.9.2-1-.4-2-1.4-2.2-1-.2-2 .4-2.2 1.4-.1.2-1.3 6.1 1.8 13.1 2.6 6.1 5.7 9.3 9.3 12.9 1.2 1.3 2.5 2.6 3.9 4.1-1.8-.5-3.7-.7-5.6-.9-.5 0-1-.1-1.5-.1-1.9-.2-3.8-.3-5.7-.7-6.6-1.2-9.4-8.6-9.4-8.7-.3-1-1.4-1.5-2.4-1.1-1 .3-1.5 1.4-1.1 2.4.1.4 3.5 9.5 12.2 11.1.5.1.9.2 1.4.2-2.6 2.6-3.9 5.8-4 6-.4 1 .1 2 1 2.4.2.1.5.1.7.1.7 0 1.4-.4 1.7-1.2 0-.1 2.5-6.2 6.8-6.7 4.7.4 8.5 1.1 11.2 5 1.3 2.8 1.7 5.3 1.9 8 .4 4.7-2 11.4-2 11.4-.4 1 .1 2 1.1 2.4.2.1.4.1.6.1.8 0 1.5-.5 1.7-1.2.1-.3 2.7-7.5 2.2-13.1-.1-2.8-.5-5.7-2.2-9.1zm52.2-17.7c-1-.3-2 .2-2.4 1.1 0 .1-2.8 7.5-9.4 8.7-1.7.3-3.5.5-5.3.7-3.1.3-6.2.7-9 1.7.2-.4.4-.7.5-1.1 1.6-3.4 3.3-7 5.7-10.3 3.5-4.9 7.7-7.8 12.5-8.7 1-.2 1.7-1.1 1.5-2.1-.2-1-1.1-1.7-2.1-1.5-5.8 1-10.8 4.5-14.8 10.2-2.5 3.6-4.4 7.4-6 10.8-.5 1-.9 1.9-1.4 2.8-.5 1.1-1.2 2-1.9 3.1-1.9 2.8-4 5.9-4.4 11.8-.5 8.1 3 13.2 3.2 13.4.4.5.9.8 1.5.8.4 0 .7-.1 1.1-.3.8-.6 1-1.7.5-2.6 0 0-2.9-4.3-2.5-11.1.2-3.2 1-5.4 2-7.2 2.6-3.8 6.6-4.9 11.2-5.5.2.1.4.2.6.2 4.4.4 6.9 6.6 7 6.8.3.7 1 1.2 1.7 1.2.2 0 .5 0 .7-.1 1-.4 1.4-1.4 1-2.4-.1-.2-1.5-3.8-4.4-6.4l1.8-.3c8.7-1.6 12.1-10.7 12.2-11.1.4-1.2-.1-2.3-1.1-2.6z"/><path class="st0" d="M96.5 40.3c8.1-5 11.3-12.2 10.8-23.8 0-1-.9-1.8-1.9-1.8-1 0-1.8.9-1.8 1.9.5 10.4-2.1 16.1-9 20.5-5.3 3.3-7.8 7.3-9.1 10.5-1.5-2.6-2.9-4.8-4.2-6.8 1.4-1.6 4.2-5 6.8-9.2C91.6 26 92.3 19.4 90.7 9c-.2-1-1.1-1.7-2.1-1.5-1 .2-1.7 1.1-1.5 2.1 1.5 9.5.9 15.3-2.1 20.1-2.1 3.3-4.4 6.2-5.8 8-1.6-2.3-3-4.4-4.2-6.6-2.1-3.8-1.6-12.2-1.2-15.1.1-1-.6-1.9-1.6-2.1-1-.1-1.9.6-2.1 1.6-.1.5-1.5 11.7 1.6 17.4 1.4 2.5 2.8 4.7 4.5 7.2 1.9 2.7 4 5.9 6.3 10 .7 1.2 1.3 2.3 1.8 3.4.1.2.1.4.2.5 3.2 7 3 12.6 1.4 27.7-.1 1 .6 1.9 1.6 2h.2c.9 0 1.7-.7 1.8-1.7 1.6-15.4 1.7-21.8-1.7-29.5.4-1.5 1.4-7.6 8.7-12.2z"/><path d="M21.2 102.7v5.8h-7.5v4.4h6.8v5.8h-6.8v10.4H7.4v-26.4h13.8zm4.2 26.4v-17.7h5.8v2.9c.5-1.1 1.3-1.9 2.3-2.5.8-.5 1.8-.7 3-.7h1.2v6c-.8-.4-1.6-.6-2.5-.6-1.1 0-2 .3-2.6 1-.9.9-1.3 2.2-1.3 4v7.6h-5.9zm32.3-8.4v.7h-12c0 1.2.3 2.2 1 3 .5.6 1.3.9 2.4.9.7 0 1.3-.2 1.9-.5.5-.3.8-.7 1-1.2h5.5c-.4 1.4-1 2.6-1.9 3.6-1.5 1.6-3.7 2.5-6.6 2.5-2.8 0-5-.9-6.7-2.7-1.6-1.7-2.4-4-2.4-6.7 0-2.9.8-5.1 2.4-6.9 1.6-1.7 3.8-2.6 6.6-2.6 2.6 0 4.6.8 6.2 2.4 1.8 1.9 2.6 4.4 2.6 7.5zm-11.8-2.9h6.5c-.2-.8-.5-1.4-.9-1.9-.6-.6-1.4-1-2.4-1s-1.8.3-2.3 1c-.5.5-.8 1.2-.9 1.9zm31.9 2.9v.7h-12c0 1.2.3 2.2 1 3 .5.6 1.3.9 2.4.9.7 0 1.3-.2 1.9-.5.5-.3.8-.7 1-1.2h5.5c-.4 1.4-1 2.6-1.9 3.6-1.5 1.6-3.7 2.5-6.6 2.5-2.8 0-5-.9-6.7-2.7-1.6-1.7-2.4-4-2.4-6.7 0-2.9.8-5.1 2.4-6.9 1.6-1.7 3.8-2.6 6.6-2.6 2.6 0 4.6.8 6.2 2.4 1.7 1.9 2.6 4.4 2.6 7.5zM66 117.8h6.5c-.2-.8-.5-1.4-.9-1.9-.6-.6-1.4-1-2.4-1s-1.8.3-2.3 1c-.6.5-.9 1.2-.9 1.9zm38.5-15.1v5.8H97v4.4h6.8v5.8H97v10.4h-6.2v-26.4h13.7zm21 17.5c0 2.6-.8 4.7-2.5 6.5-1.8 2-4.2 2.9-7.2 2.9s-5.4-1-7.2-2.9c-1.7-1.8-2.5-4-2.5-6.5s.8-4.7 2.5-6.5c1.8-2 4.2-2.9 7.2-2.9 2.9 0 5.3 1 7.2 2.9 1.7 1.8 2.5 3.9 2.5 6.5zm-9.7-4c-1 0-1.8.4-2.6 1.1s-1.1 1.7-1.1 2.9c0 1.1.4 2 1.1 2.8.7.8 1.6 1.2 2.6 1.2s1.8-.4 2.6-1.2c.7-.8 1.1-1.7 1.1-2.8 0-1.1-.4-2.1-1.1-2.9-.7-.7-1.6-1.1-2.6-1.1zm30.6 4c0 2.6-.8 4.7-2.5 6.5-1.8 2-4.2 2.9-7.2 2.9s-5.4-1-7.2-2.9c-1.7-1.8-2.5-4-2.5-6.5s.8-4.7 2.5-6.5c1.8-2 4.2-2.9 7.2-2.9 2.9 0 5.3 1 7.2 2.9 1.7 1.8 2.5 3.9 2.5 6.5zm-9.6-4c-1 0-1.8.4-2.6 1.1s-1.1 1.7-1.1 2.9c0 1.1.4 2 1.1 2.8.7.8 1.6 1.2 2.6 1.2s1.8-.4 2.6-1.2c.7-.8 1.1-1.7 1.1-2.8 0-1.1-.4-2.1-1.1-2.9-.8-.7-1.7-1.1-2.6-1.1zm30.8-16v28.9h-5.8v-1.9c-1.2 1.7-2.8 2.5-4.9 2.5-2.2 0-4.1-.8-5.7-2.5-1.7-1.8-2.6-4.2-2.6-7 0-2.9.9-5.2 2.6-7 1.5-1.6 3.4-2.4 5.7-2.4 1.9 0 3.5.8 4.8 2.3v-12.9h5.9zm-9.3 24.1c.9 0 1.7-.4 2.5-1.1.8-.8 1.2-1.8 1.2-3 0-1.1-.4-2-1.1-2.9-.7-.8-1.5-1.2-2.6-1.2-1 0-1.9.4-2.6 1.1-.7.8-1.1 1.8-1.1 3 0 1 .4 2 1.1 2.8.8.9 1.6 1.3 2.6 1.3z" fill="#fff"/><circle class="st4" cx="128.3" cy="155.6" r="1.8"/><circle class="st4" cx="46.5" cy="155.6" r="1.8"/><path class="st4" d="M60 163.2c-.8 0-1.3-.1-1.7-.4-.4-.3-.6-.7-.7-1.2-.1-.5-.1-1.1 0-1.7.1-.6.2-1.3.4-1.9.2-.6.4-1.3.6-1.8.2-.6.4-1 .6-1.4.4-.9.7-1.8 1.1-2.7.4-.9.8-1.8 1.2-2.6.4-.8.8-1.5 1.1-2.1.3-.6.6-1 .8-1.2.3-.4.7-.6 1.2-.6s.9.1 1.3.4c.3.2.4.5.4 1-.1.5-.2 1.1-.5 1.8s-.7 1.5-1.2 2.3c-.5.8-1 1.7-1.5 2.5.3-.2.5-.3.8-.4.6-.1 1.1 0 1.5.2.4.2.7.6.9 1.1.1.4.1 1 0 1.5-.1.6-.3 1.2-.5 1.8-.2.6-.5 1.2-.8 1.7s-.6 1-1 1.3c.4-.3.9-.7 1.5-1.1.5-.4 1-.9 1.5-1.4.5-.5.9-1 1.3-1.5s.6-1 .8-1.5c0 .6-.1 1.2-.5 1.9s-.9 1.4-1.6 2.1-1.4 1.4-2.3 2c-.9.6-1.8 1.2-2.7 1.6-.3.1-.6.2-1 .3-.4-.1-.7 0-1 0zm-1.4-2.9c-.2.6-.3 1.1-.2 1.5.1.4.3.6.6.7.3.1.7.1 1.2-.1s1.1-.5 1.7-1.1c.7-.6 1.3-1.4 1.8-2.2.5-.9.8-1.7 1-2.5.2-.8.3-1.5.2-2-.1-.6-.4-.8-.8-.8-.3 0-.6.1-.9.4-.3.3-.7.7-1 1.1s-.7.9-1.1 1.4c-.4.5-.7 1-1 1.4-.5.8-.9 1.3-1 1.6-.2.3-.3.5-.5.6zm6.8-14.1h-.2c-.1 0-.3.2-.5.6-.3.5-.6 1.2-1 1.9s-.7 1.5-1.1 2.3c-.4.8-.7 1.6-1.1 2.4-.4.8-.7 1.6-1 2.4 1.2-1.7 2.2-3.3 3.1-4.9.9-1.6 1.5-2.8 1.9-3.7.1-.2.1-.4.1-.6 0-.2 0-.3-.2-.4z"/><path class="st4" d="M67.8 160.1c-.2.3-.3.6-.3.9 0 .4.1.7.3.9.2.3.5.4.9.5.4.1 1 0 1.7-.2s1.5-.6 2.2-1.2c.7-.6 1.4-1.2 2.1-2 .7-.7 1.2-1.4 1.8-2.2.5-.7.9-1.4 1.2-1.9-.3.9-.7 1.7-1.3 2.6-.5.9-1.1 1.7-1.7 2.4-.6.7-1.3 1.4-2 1.9s-1.5.9-2.2 1.1c-.9.2-1.7.2-2.4 0s-1.2-.6-1.5-1.1c-.3-.5-.5-1.1-.5-1.9 0-.7.3-1.5.7-2.3.3-.6.6-1.1 1-1.6s.8-.9 1.2-1.3c.4-.4.8-.7 1.1-.9.4-.3.7-.5.9-.6.8-.4 1.5-.5 2.2-.4.6.1 1.1.4 1.5 1 .1.2.1.5.1 1-.1.5-.4 1-.8 1.6s-1.2 1.2-2.2 1.8c-1 .8-2.3 1.4-4 1.9zm4.7-5.5c-.4.2-.8.5-1.3.9s-.9.8-1.3 1.3-.8.9-1.1 1.4c-.3.5-.6.9-.7 1.3.7-.2 1.6-.6 2.6-1.2 1-.5 1.9-1.3 2.6-2.3.2-.3.4-.6.5-.9.1-.3.2-.5.2-.7 0-.2-.2-.2-.4-.2s-.6.1-1.1.4zm15.4 2.3c-.4.1-.9.1-1.4.1H85c.3.1.5.4.7.8.2.4.3 1 .3 1.6v1.9c-.1.6-.2 1.2-.3 1.7-.1.5-.3 1.2-.6 2-.3.9-.6 1.7-1 2.4s-.9 1.3-1.5 1.8c-.6.4-1.3.5-2.1.2-.4-.2-.6-.7-.6-1.5s.2-1.8.5-3 .7-2.5 1.2-3.9 1-2.8 1.4-4.2l-.9-.1c-.7-.1-1.1-.2-1.2-.4-.1-.2.1-.3.6-.2.4.1.7.1 1 .1h.8c.4-1 .8-2 1.3-3.1s.9-2.1 1.4-3.1l1.3-2.6c.4-.7.7-1.2.9-1.5.4-.4.8-.6 1.4-.5.6.1 1 .2 1.4.4.4.3.6.8.5 1.6s-.4 1.7-.9 2.7c-.5 1-1.2 2.1-2 3.1-.8 1.1-1.6 2.1-2.5 2.9.9-.1 1.5-.2 1.8-.4.3-.2.4-.5.4-.9-.1-.2 0-.3.2-.1.2.1.4.4.6.7.2.3.2.6.1.9-.4.3-.7.5-1.3.6zm-3 5.1c.2-1.4.3-2.5.2-3.3s-.2-1.3-.5-1.6c0 .1 0 .1-.1.1l-.9 2.3c-.1.4-.3.8-.5 1.4l-.6 1.8c-.2.6-.4 1.3-.6 2-.2.7-.3 1.3-.4 1.8-.1.6-.2 1-.2 1.4 0 .4 0 .5.1.6.3.1.6-.1.9-.3.3-.3.7-.7 1-1.3.3-.6.7-1.3.9-2.1.3-.8.6-1.7.7-2.8zm4.8-15.3c-.4.6-.8 1.3-1.2 2l-1.2 2.4c-.4.8-.8 1.7-1.2 2.6-.4.9-.7 1.7-1.1 2.5h.2l.2-.3c1.6-2 2.8-3.7 3.6-5.2.7-1.5 1.2-2.7 1.4-3.7.1-.4.1-.7-.1-.8-.2-.1-.4.1-.6.5zm-.7 16.5c-.5-.2-.8-.5-.9-1-.1-.5-.1-1.1.1-1.7.1-.5.3-1 .5-1.6.2-.6.5-1.2.7-1.8.2-.6.5-1.2.8-1.8.3-.6.5-1 .8-1.5.3-.4.7-.7 1.1-.8.5-.1.9-.1 1.2 0 .3.1.6.2.7.4.1.2 0 .3-.4.3-.2 0-.5.2-.8.6-.3.4-.6.8-1 1.3-.3.5-.7 1-.9 1.5-.3.5-.5 1-.7 1.4.3-.4.7-1 1.2-1.6.5-.6 1.1-1.2 1.6-1.7.6-.5 1.1-1 1.6-1.4.5-.4.9-.6 1.1-.7.4-.1.7-.1 1.1 0 .3.1.6.2.8.3s.4.3.4.5c.1.2 0 .4-.2.6-.1.1-.2.2-.2.3s-.1.1-.1.2-.1.2-.2.4c-.1.1-.2.4-.4.7-.3.6-.6 1.1-.9 1.6-.2.5-.4.9-.6 1.3-.1.4-.1.7.1.8s.5.1.9-.2c.4-.3.9-.7 1.5-1.5.6-.7 1.2-1.7 1.8-2.9-.1.3-.2.7-.4 1.1-.2.4-.4.9-.7 1.3s-.6.9-.9 1.3c-.4.4-.7.8-1.1 1-.2.1-.5.2-.8.3-.3 0-.6 0-.9-.1s-.5-.2-.7-.4c-.2-.2-.3-.5-.3-.7 0-.4.1-.7.2-1.2.1-.4.2-.9.4-1.3s.4-.9.6-1.2c.2-.4.4-.7.5-.9.1-.3.2-.4.1-.5 0-.1-.1-.1-.2 0-.1 0-.2.1-.4.2-.1.1-.3.2-.4.3-.5.4-1 .8-1.5 1.3l-1.6 1.6c-.5.6-1 1.1-1.4 1.7-.4.5-.7.9-.8 1.2-.2.4-.4.8-.5 1.5 0 .6-.1 1.1.1 1.5z"/><path class="st4" d="M98.9 160.1c-.2.3-.3.6-.3.9 0 .4.1.7.3.9.2.3.5.4.9.5.4.1 1 0 1.7-.2s1.5-.6 2.2-1.2c.7-.6 1.4-1.2 2.1-2 .7-.7 1.2-1.4 1.8-2.2.5-.7.9-1.4 1.2-1.9-.3.9-.7 1.7-1.3 2.6-.5.9-1.1 1.7-1.7 2.4-.6.7-1.3 1.4-2 1.9s-1.5.9-2.2 1.1c-.9.2-1.7.2-2.4 0s-1.2-.6-1.5-1.1c-.3-.5-.5-1.1-.5-1.9 0-.7.3-1.5.7-2.3.3-.6.6-1.1 1-1.6s.8-.9 1.2-1.3c.4-.4.8-.7 1.1-.9.4-.3.7-.5.9-.6.8-.4 1.5-.5 2.2-.4.6.1 1.1.4 1.5 1 .1.2.1.5.1 1-.1.5-.4 1-.8 1.6-.5.6-1.2 1.2-2.2 1.8-1.1.8-2.4 1.4-4 1.9zm4.6-5.5c-.4.2-.8.5-1.3.9s-.9.8-1.3 1.3-.8.9-1.1 1.4c-.3.5-.6.9-.7 1.3.7-.2 1.6-.6 2.6-1.2 1-.5 1.9-1.3 2.6-2.3.2-.3.4-.6.5-.9.1-.3.2-.5.2-.7 0-.2-.2-.2-.4-.2s-.6.1-1.1.4z"/><path class="st4" d="M107.5 160.1c-.2.3-.3.6-.3.9 0 .4.1.7.3.9.2.3.5.4.9.5.4.1 1 0 1.7-.2s1.5-.6 2.2-1.2c.7-.6 1.4-1.2 2.1-2 .7-.7 1.2-1.4 1.8-2.2.5-.7.9-1.4 1.2-1.9-.3.9-.7 1.7-1.3 2.6-.5.9-1.1 1.7-1.7 2.4-.6.7-1.3 1.4-2 1.9s-1.5.9-2.2 1.1c-.9.2-1.7.2-2.4 0s-1.2-.6-1.5-1.1c-.3-.5-.5-1.1-.5-1.9 0-.7.3-1.5.7-2.3.3-.6.6-1.1 1-1.6s.8-.9 1.2-1.3c.4-.4.8-.7 1.1-.9.4-.3.7-.5.9-.6.8-.4 1.5-.5 2.2-.4.6.1 1.1.4 1.5 1 .1.2.1.5.1 1-.1.5-.4 1-.8 1.6-.5.6-1.2 1.2-2.2 1.8-1 .8-2.4 1.4-4 1.9zm4.6-5.5c-.4.2-.8.5-1.3.9s-.9.8-1.3 1.3-.8.9-1.1 1.4c-.3.5-.6.9-.7 1.3.7-.2 1.6-.6 2.6-1.2 1-.5 1.9-1.3 2.6-2.3.2-.3.4-.6.5-.9.1-.3.2-.5.2-.7 0-.2-.2-.2-.4-.2s-.5.1-1.1.4z"/></g></svg>